<?xml version="1.0" encoding="utf-8"?>
<!-- Generator: Adobe Illustrator 19.0.0, SVG Export Plug-In . SVG Version: 6.00 Build 0)  -->
<svg xmlns="http://www.w3.org/2000/svg" xmlns:xlink="http://www.w3.org/1999/xlink" version="1.1" id="Layer_1" x="0px" y="0px" viewBox="0 2 98 98" style="enable-background:new 0 2 98 98;" xml:space="preserve" width="512" height="512">
<style type="text/css">
	.st0{fill:url(#SVGID_1_);}
	.st1{fill:url(#SVGID_2_);}
	.st2{fill:url(#SVGID_3_);}
</style>
<g>
	
		<linearGradient id="SVGID_1_" gradientUnits="userSpaceOnUse" x1="49" y1="95" x2="49" y2="7.5897" gradientTransform="matrix(1 0 0 -1 0 104)">
		<stop offset="0" style="stop-color:#00EFD1"/>
		<stop offset="1" style="stop-color:#00ACEA"/>
	</linearGradient>
	<path class="st0" d="M49,11.5c-15.9,0-28.8,12.9-28.8,28.8c0,10.6,5.9,20.3,15.1,25.3v6c0,1.7,1.3,3,3,3h21.3c1.7,0,3-1.3,3-3v-5.9   c9.3-5,15.2-14.8,15.2-25.4C77.8,24.4,64.9,11.5,49,11.5z M58.4,61.1c-1.1,0.5-1.8,1.6-1.8,2.7v4.8H41.3v-4.8   c0-1.2-0.7-2.2-1.7-2.7c-8.1-3.7-13.4-11.9-13.4-20.8c0-12.6,10.2-22.8,22.8-22.8s22.8,10.2,22.8,22.8   C71.8,49.2,66.5,57.3,58.4,61.1z"/>
	
		<linearGradient id="SVGID_2_" gradientUnits="userSpaceOnUse" x1="49" y1="95" x2="49" y2="7.5897" gradientTransform="matrix(1 0 0 -1 0 104)">
		<stop offset="0" style="stop-color:#00EFD1"/>
		<stop offset="1" style="stop-color:#00ACEA"/>
	</linearGradient>
	<path class="st1" d="M57.3,78.6H40.7c-1.7,0-3,1.3-3,3s1.3,3,3,3h16.6c1.7,0,3-1.3,3-3S59,78.6,57.3,78.6z"/>
	
		<linearGradient id="SVGID_3_" gradientUnits="userSpaceOnUse" x1="49" y1="95" x2="49" y2="7.5897" gradientTransform="matrix(1 0 0 -1 0 104)">
		<stop offset="0" style="stop-color:#00EFD1"/>
		<stop offset="1" style="stop-color:#00ACEA"/>
	</linearGradient>
	<path class="st2" d="M52.5,88.5h-7c-1.7,0-3,1.3-3,3s1.3,3,3,3h7c1.7,0,3-1.3,3-3S54.2,88.5,52.5,88.5z"/>
</g>
</svg>
